<?xml version="1.0" standalone="yes"?>
<svg xmlns="http://www.w3.org/2000/svg" width="512" height="512">
<path style="fill:#010101; stroke:none;" d="M0 0L0 155L1 155C8.78831 145.832 21.5258 149.342 32 151.449C58.4604 156.773 86.1946 170.77 100 195L157 164C152.113 140.321 142.412 117.693 134.308 95C131.614 87.4578 124.35 75.5477 130.434 68.1088C136.536 60.6474 149.893 64.8866 158 66C184.466 69.6351 210.399 75.9277 236 83.4244C255.778 89.2157 275.839 97.9086 293 109.355C301.034 114.713 308.61 125.599 317.17 129.258C323.4 131.922 332.289 131.658 339 133C352.599 135.719 366.015 139.528 379 144.425C433.163 164.851 486.191 208.926 511 262L512 262L512 0L0 0z"/>
<path style="fill:#ffffff; stroke:none;" d="M157 164C136.998 171.76 117.748 183.027 100 195C90.1433 169.375 54.9801 155.139 30 150.921C22.5017 149.654 9.8059 146.073 3.34414 151.653C-3.29717 157.388 -0.38789 176.16 0.729167 184C4.61295 211.257 10.8259 248.613 35 266L35 267C11.2623 285.167 4.66482 321.379 0.729167 349C-0.368279 356.702 -3.0993 374.543 2.43364 380.772C8.2029 387.266 22.603 383.666 30 382.414C56.1557 377.985 87.5655 363.963 100 339C127.211 350.741 150.784 371.009 180 379C175.667 394.844 172.395 408.557 170.83 425C170.195 431.671 168.227 440.547 174.144 445.566C181.355 451.683 198.499 447.486 207 446.271C229.268 443.088 251.711 436.84 271 424.935C279.424 419.736 285.789 411.784 294 406.603C298.944 403.484 306.401 405.32 312 404.576C327.581 402.505 342.771 400.138 358 396.116C408.034 382.899 453.709 351.686 485.424 311C494.044 299.942 510.659 282.55 511.891 268C512.702 258.429 504.017 248.528 499 241C483.41 217.605 464.336 196.384 442 179.235C418.112 160.895 390.907 146.88 362 138.424C348.27 134.408 330.997 134.618 318.09 129.258C307.674 124.933 298.252 111.703 288 105.604C264.09 91.38 236.977 82.2799 210 75.8843C190.573 71.2786 170.856 67.1791 151 64.9498C144.429 64.2121 134.268 61.6045 129.742 68.1088C124.456 75.7072 131.245 87.6137 133.947 95C142.302 117.844 150.404 140.582 157 164z"/>
<path style="fill:#010101; stroke:none;" d="M286.001 171.696C275.437 174.412 270.471 192.996 267.344 202C256.225 234.022 254.146 268.666 259.753 302C261.328 311.365 265.144 344.265 279.996 340.307C295.381 336.207 281.832 309.948 280.084 300C275.304 272.789 275.817 244.636 283.721 218C287.137 206.486 294.797 195.411 297.428 184C298.943 177.43 293.113 169.867 286.001 171.696M329 171.616C317.448 174.267 312.225 195.333 309 205C296.651 242.019 295.986 282.447 306.424 320C309.586 331.373 313.494 342.739 319.428 353C322.316 357.994 326.449 363.191 332.996 361.552C337.437 360.44 341.041 355.614 340.505 351C339.267 340.362 330.283 328.525 327.025 318C317.401 286.907 317.047 251.35 325.745 220C329.166 207.671 335.961 196.939 339.888 185C342.105 178.259 336.744 169.839 329 171.616M0 182L0 351L1 351C1.62794 320.577 14.5326 289.237 35 267L35 266C19.7499 250.428 10.6131 230.959 5.37346 210C3.16686 201.174 3.54388 190.215 0 182M379 214.529C352.877 220.566 362.927 260.289 389 254.61C415.362 248.867 404.781 208.571 379 214.529M511 271C485.105 331.095 421.054 377.087 360 395.279C345.975 399.458 331.509 402.108 317 403.845C310.384 404.637 299.88 403.088 294 406.028C285.331 410.362 278.467 419.709 270 424.935C251.088 436.608 228.879 443.08 207 446.13C198.342 447.337 182.574 451.516 175.058 445.566C168.388 440.287 170.413 432.263 170.91 425C172.03 408.661 177.289 394.744 180 379L128 354.694L100 339C83.3773 362.12 59.0826 377.1 31 382.076C20.9689 383.854 7.98595 387.374 1 378L0 378L0 512L512 512L512 342L512 293L511 271z"/>
</svg>
